# xmcd CD database file
#
# Track frame offsets:
#	150
#	38531
#	66604
#	97581
#	113033
#	129994
#	164392
#	193066
#	207653
#	220516
#	243394
#	264216
#
# Disc length: 3912 seconds
#
# Revision: 1
# Processed by: cddbd v1.5.2PL0 Copyright (c) Steve Scherf et al.
# Submitted via: CDex 1.51
#
DISCID=a20f460c
DTITLE=Marilyn Mazur Group - Magic Box CD01
DYEAR=2010
DGENRE=Jazz
TTITLE0=Magic Box
TTITLE1=To Soften The Past
TTITLE2=Spirit Call
TTITLE3=Drum Fable
TTITLE4=Today I Slept A Little Late
TTITLE5=Sage Passion
TTITLE6=5 Sma Piger (5 Little Girls)
TTITLE7=Drum Forest
TTITLE8=Syv Vinde (Seven Winds)
TTITLE9=Essence
TTITLE10=Eternal Embrace
TTITLE11=Meditation
EXTD=YEAR: 2010
EXTT0=
EXTT1=
EXTT2=
EXTT3=
EXTT4=
EXTT5=
EXTT6=
EXTT7=
EXTT8=
EXTT9=
EXTT10=
EXTT11=
PLAYORDER=
